<svg id="c16ba58d-b172-4e1f-91c7-0866e12612bf" data-name="Layer 1" xmlns="http://www.w3.org/2000/svg" viewBox="0 0 512 319.98"><title>icon-participer</title><path d="M381.87,340.65l-12.74,2.82-62.74-62.85-15.08-.32L291,295.38l60.81,61.3-7.91,8.48-16.57.42-.64-.57-52.14-52.22-15.08-.64-.64,15.08,49.36,50-11.39,11.44-12.25-1.9h0l-.32-.29L231.81,334l-15.08-.51-.52,15.08,44.88,45.76-5.09.3-26.13-8.94-95-73.92-24.26-24.17L94.43,271.19,123.31,160h65.43l-29.1,65.57L178,244.8l86.15-29.74L385,324.63Zm16-35.49-74.32-67.87L274.2,195.15,263,192.66l-78.38,31.89-4.24-3.9L204,174.91l90.3-26.5L377,181.46l40.39,110.61Zm47.45,4.17L388.67,155,512,117.33,363.48,139.67l.63,14.3L303,128.91l-90.81,9.75H126.86l-2.19-18.41L0,96l106.05,37.2L66.88,288,0,309.33H74.67L84.8,302l2.5-7.79,7.89,8.21,26,25.78,97,75.41L256,416l24.21-7.12,24.26-.26,22.21-20.5,26.77-3.86,17.81-18.6,24.47-8.77,11.57-32.36,16.89-11.34,2.86,17.48H512Z" transform="translate(0 -96.02)" fill="#3a3a3a"/></svg>