<svg id="4e80eb9e-dcd2-49fd-a205-f8f5f9b7f21f" data-name="Calque 1" xmlns="http://www.w3.org/2000/svg" viewBox="0 0 348.3 339.42"><title>icon-pourquoi</title><path d="M178.79,243.44H179q30.65,0,52-21.37t21.38-52q0-30.65-21.38-52.42T179,95.86h-.16V33H179Q213.63,33,232.17.7a179.89,179.89,0,0,1,33.88,13.71Q258,46.68,279.75,69.25q25,25,54.84,17.74,5.66,10.49,13.71,33.07-33,21-33.06,50,0,32.26,33.06,53.22-8.06,22.59-13.71,33.07-33-8.06-54.84,14.11t-13.7,54.44a322.87,322.87,0,0,1-33.88,14.52Q213.63,306.35,179,306.35h-.16Z" fill="#3a3a3a"/><path d="M86,63.12A269.48,269.48,0,0,1,45.66,49.9v-.5A172.5,172.5,0,0,1,126.5,0,156.72,156.72,0,0,0,86,63.12Z" fill="#3a3a3a"/><path d="M68.2,172.57a298.27,298.27,0,0,0,13.72,85.25,277.68,277.68,0,0,0-44.74,15.8A171.5,171.5,0,0,1,0,172.82H68.2Z" fill="#3a3a3a"/><path d="M80.76,160.1A290.32,290.32,0,0,1,93.9,77.68,381.4,381.4,0,0,0,166,85.5v74.85H80.76Z" fill="#3a3a3a"/><path d="M126.5,332.67a172.46,172.46,0,0,1-80.84-49.23A270.67,270.67,0,0,1,86,270.21,156.72,156.72,0,0,0,126.5,332.67Z" fill="#3a3a3a"/><path d="M68.2,160.35,0,160.51A171.55,171.55,0,0,1,37.18,59.71,277.48,277.48,0,0,0,81.92,74.85,298.18,298.18,0,0,0,68.2,160.35Z" fill="#3a3a3a"/><path d="M166,260.15v78.18c-27.94-3.58-52.39-30.61-67.95-71A370.24,370.24,0,0,1,166,260.15Z" fill="#3a3a3a"/><path d="M80.76,172.82H166v74.85A381.7,381.7,0,0,0,93.9,256,290.07,290.07,0,0,1,80.76,172.82Z" fill="#3a3a3a"/></svg>